# xmcd
#
# Track frame offsets:
#	150
#	21247
#	42099
#	61475
#	84692
#	105585
#	122696
#	139094
#	159623
#	177770
#	186039
#	204406
#	221709
#
# Disc length: 3155 seconds
#
# Revision: 2
# Processed by: cddbd v1.5.1PL0 Copyright (c) Steve Scherf et al.
# Submitted via: CDmax 2.0
#
DISCID=b40c510d
DTITLE=Paul Hardcastle - Jazzmaster 4
DYEAR=1900
DGENRE=Blues
TTITLE0=Valley of the Harp
TTITLE1=Feeling Blue
TTITLE2=Visions of Illusion
TTITLE3=Lifetime
TTITLE4=Puerto Banus
TTITLE5=Time 4 Living
TTITLE6=Signs of Life (still searching)
TTITLE7=Emerald Stardust
TTITLE8=Voice of the Angels
TTITLE9=Quiet Groove
TTITLE10=Valley of the Harps (revisited)
TTITLE11=How long (before we get it right)
TTITLE12=If you knew
EXTD=
EXTT0=
EXTT1=
EXTT2=
EXTT3=
EXTT4=
EXTT5=
EXTT6=
EXTT7=
EXTT8=
EXTT9=
EXTT10=
EXTT11=
EXTT12=
PLAYORDER=
